<svg width="244" height="255" viewBox="0 0 244 255" fill="none" xmlns="http://www.w3.org/2000/svg">
<g clip-path="url(#clip0_6738_9893)">
<path d="M223.788 218.161L212.611 228.483L221.493 213.531C214.496 200.8 203.051 189.797 203.051 189.797C203.051 189.797 179.306 212.62 179.306 230.56C179.306 248.5 189.937 254.764 203.051 254.764C216.164 254.764 226.795 248.5 226.795 230.56C226.795 226.567 225.617 222.332 223.788 218.161Z" fill="#F2F2F2"/>
<path d="M209.737 229.042V229.926C209.684 240.205 207.956 248.225 204.566 253.872C204.518 253.955 204.466 254.034 204.418 254.117L204.038 253.885L203.676 253.658C207.437 247.56 208.768 238.94 208.816 229.974C208.82 229.685 208.825 229.392 208.82 229.099C208.807 225.303 208.576 221.464 208.205 217.734C208.179 217.445 208.148 217.152 208.118 216.859C207.603 211.938 206.861 207.237 206.102 203.152C206.05 202.863 205.993 202.574 205.936 202.29C204.623 195.382 203.283 190.378 202.978 189.271C202.943 189.135 202.921 189.061 202.917 189.043L203.331 188.925L203.335 188.92L203.754 188.802C203.759 188.82 203.833 189.069 203.955 189.533C204.422 191.267 205.635 195.973 206.826 202.18C206.879 202.461 206.935 202.75 206.988 203.038C207.607 206.352 208.214 210.056 208.694 213.943C208.816 214.92 208.925 215.883 209.021 216.833C209.056 217.126 209.087 217.419 209.113 217.708C209.514 221.74 209.722 225.518 209.737 229.042Z" fill="white"/>
<path d="M206.826 202.181C206.534 202.22 206.237 202.259 205.936 202.29C205.118 202.374 204.297 202.417 203.475 202.417C199.972 202.422 196.513 201.638 193.352 200.123C193.168 200.355 192.985 200.587 192.797 200.823C196.123 202.452 199.775 203.296 203.475 203.292C204.353 203.292 205.229 203.245 206.102 203.152C206.399 203.122 206.695 203.082 206.988 203.039C209.401 202.691 211.748 201.978 213.948 200.924C213.76 200.683 213.577 200.447 213.398 200.215C211.316 201.191 209.101 201.854 206.826 202.181Z" fill="white"/>
<path d="M209.021 216.833C208.72 216.85 208.419 216.859 208.118 216.859C208.026 216.863 207.93 216.863 207.839 216.863C204.043 216.863 200.303 215.943 196.939 214.18C193.575 212.416 190.685 209.863 188.517 206.738C188.342 206.996 188.168 207.254 187.998 207.517C190.258 210.679 193.236 213.256 196.687 215.034C200.137 216.811 203.96 217.739 207.839 217.739C207.961 217.739 208.083 217.739 208.205 217.735C208.511 217.73 208.812 217.721 209.113 217.708C213.772 217.469 218.264 215.888 222.051 213.155C221.911 212.897 221.772 212.639 221.628 212.381C217.947 215.064 213.566 216.611 209.021 216.833Z" fill="white"/>
<path d="M209.737 229.042C209.431 229.068 209.126 229.086 208.821 229.099C208.493 229.112 208.166 229.121 207.839 229.121C202.738 229.115 197.777 227.452 193.697 224.38C189.618 221.309 186.64 216.995 185.209 212.083C185.013 212.438 184.817 212.788 184.629 213.142C186.241 218.043 189.351 222.308 193.518 225.334C197.684 228.36 202.695 229.991 207.839 229.997C208.166 229.997 208.493 229.992 208.816 229.975C209.126 229.966 209.431 229.948 209.737 229.926C215.907 229.442 221.662 226.624 225.838 222.042C225.747 221.718 225.642 221.399 225.537 221.075C221.504 225.691 215.836 228.549 209.737 229.042Z" fill="white"/>
<path d="M183.596 55.1363L62.032 39.5877C61.7045 39.5456 61.3747 39.5241 61.0445 39.5234C60.7191 39.5229 60.394 39.5435 60.0712 39.5851C59.749 39.6267 59.4298 39.6893 59.1158 39.7727C58.798 39.8578 58.486 39.9634 58.1819 40.0889C57.8838 40.2116 57.5935 40.3524 57.3125 40.5105C57.0277 40.6697 56.7525 40.8456 56.4884 41.0374C56.2182 41.2342 55.9594 41.4462 55.7131 41.6724C55.4589 41.9052 55.2173 42.1514 54.9893 42.4102C54.7553 42.6766 54.5352 42.9548 54.3296 43.2438C54.1219 43.5364 53.927 43.8409 53.7449 44.157C53.5629 44.4743 53.3939 44.8041 53.2381 45.1467C53.0822 45.4892 52.9401 45.8433 52.8115 46.209C52.6785 46.587 52.5619 46.9735 52.4617 47.3683C52.3616 47.7632 52.2779 48.1649 52.2106 48.5735C52.1448 48.9817 52.0944 49.3966 52.0594 49.8182C52.0244 50.2398 52.0068 50.6664 52.0068 51.0982C52.0082 51.5296 52.0257 51.9596 52.0594 52.3882C52.093 52.8168 52.1434 53.2419 52.2106 53.6635C52.2786 54.0868 52.3626 54.5059 52.4628 54.9208C52.5629 55.3357 52.6795 55.7458 52.8126 56.1512C52.9411 56.543 53.0833 56.9257 53.2391 57.2995C53.3949 57.6737 53.5639 58.0376 53.746 58.3914C53.9281 58.7451 54.1229 59.0887 54.3306 59.4221C54.5379 59.7569 54.7578 60.0791 54.9903 60.3886C55.2228 60.6981 55.4641 60.9933 55.7142 61.2744C55.9642 61.5537 56.2226 61.8172 56.4894 62.0648C56.7563 62.3125 57.031 62.5438 57.3136 62.7589C57.5931 62.9717 57.8832 63.1701 58.1829 63.3533C58.4847 63.538 58.7964 63.7056 59.1168 63.8555C59.4276 64.0008 59.7466 64.1276 60.0723 64.2354C60.3912 64.341 60.7162 64.4271 61.0456 64.4931C61.3717 64.5583 61.7015 64.6031 62.0331 64.6275L183.597 73.5484C183.951 73.5742 184.306 73.5385 184.648 73.443C184.822 73.3945 184.991 73.3317 185.155 73.2554C185.325 73.1757 185.49 73.0832 185.647 72.9787C185.806 72.8729 185.958 72.7567 186.102 72.6309C186.253 72.499 186.396 72.3582 186.53 72.2094C186.672 72.0521 186.806 71.8875 186.931 71.7161C187.06 71.5398 187.184 71.3518 187.303 71.1523C187.423 70.9528 187.535 70.7446 187.641 70.5278C187.747 70.3111 187.847 70.0859 187.939 69.8523C188.032 69.619 188.118 69.3776 188.196 69.1282C188.275 68.8788 188.347 68.622 188.412 68.3578C188.48 68.0845 188.539 67.8063 188.588 67.5231C188.638 67.2399 188.68 66.9526 188.715 66.661C188.749 66.3694 188.774 66.0739 188.791 65.7746C188.808 65.4753 188.816 65.1727 188.816 64.8667C188.815 64.561 188.807 64.2568 188.791 63.954C188.775 63.6511 188.75 63.3506 188.715 63.0523C188.681 62.7541 188.639 62.4583 188.588 62.1649C188.538 61.8716 188.479 61.5814 188.412 61.2944C188.347 61.0169 188.275 60.7456 188.196 60.4808C188.118 60.2194 188.033 59.9619 187.939 59.7082C187.846 59.4546 187.746 59.2087 187.641 58.9705C187.535 58.7326 187.423 58.5018 187.303 58.2781C187.184 58.0543 187.06 57.8414 186.931 57.6393C186.802 57.4373 186.669 57.2459 186.53 57.065C186.392 56.884 186.249 56.7147 186.102 56.557C185.958 56.4024 185.806 56.2557 185.647 56.1175C185.491 55.9821 185.326 55.8566 185.155 55.7418C184.993 55.6333 184.823 55.5365 184.648 55.4519C184.48 55.3711 184.306 55.3035 184.128 55.2496C183.954 55.1973 183.776 55.1594 183.596 55.1363Z" fill="#FC4700"/>
<path d="M183.596 90.2041L62.032 87.2832C61.3726 87.2668 60.7138 87.3343 60.0712 87.4839C59.7471 87.5596 59.428 87.6555 59.1158 87.7711C58.7965 87.8892 58.4846 88.0264 58.1818 88.1821C57.8828 88.3358 57.5926 88.5061 57.3125 88.6922C57.0271 88.8819 56.7519 89.0869 56.4884 89.3062C56.218 89.5313 55.9592 89.7701 55.7131 90.0218C55.4627 90.2775 55.2214 90.5494 54.9893 90.8375C54.7571 91.1263 54.5372 91.4272 54.3296 91.7402C54.1219 92.0532 53.927 92.3778 53.7449 92.714C53.5628 93.0502 53.3939 93.3977 53.238 93.7563C53.0822 94.115 52.94 94.4839 52.8115 94.863C52.6785 95.2554 52.5619 95.6541 52.4617 96.0592C52.3616 96.4642 52.2779 96.8746 52.2106 97.2902C52.1448 97.7058 52.0944 98.1261 52.0594 98.5512C52.0243 98.9763 52.0068 99.4047 52.0068 99.8365C52.0082 100.268 52.0257 100.696 52.0594 101.121C52.093 101.546 52.1434 101.966 52.2106 102.381C52.2786 102.794 52.3626 103.203 52.4628 103.607C52.5629 104.012 52.6795 104.41 52.8126 104.802C52.9411 105.182 53.0832 105.55 53.2391 105.908C53.3949 106.266 53.5639 106.612 53.746 106.947C53.9281 107.282 54.1229 107.606 54.3306 107.917C54.5379 108.228 54.7578 108.527 54.9903 108.813C55.2228 109.1 55.4641 109.37 55.7141 109.624C55.9602 109.874 56.219 110.112 56.4894 110.335C56.753 110.553 57.0281 110.756 57.3136 110.944C57.5937 111.128 57.884 111.296 58.1829 111.448C58.4858 111.602 58.7976 111.737 59.1168 111.853C59.4291 111.967 59.7483 112.061 60.0723 112.134C60.393 112.207 60.7181 112.26 61.0456 112.292C61.3737 112.324 61.7036 112.335 62.0331 112.324L183.596 108.614C183.775 108.609 183.953 108.588 184.128 108.552C184.305 108.516 184.479 108.466 184.648 108.401C184.823 108.334 184.992 108.254 185.155 108.161C185.326 108.063 185.49 107.954 185.647 107.833C185.806 107.71 185.958 107.579 186.102 107.438C186.253 107.29 186.396 107.135 186.53 106.972C186.668 106.806 186.802 106.628 186.931 106.437C187.06 106.246 187.184 106.046 187.303 105.835C187.423 105.623 187.535 105.403 187.641 105.175C187.747 104.947 187.847 104.712 187.939 104.469C188.032 104.222 188.118 103.971 188.196 103.715C188.275 103.459 188.347 103.196 188.412 102.924C188.48 102.647 188.539 102.364 188.588 102.076C188.638 101.787 188.68 101.495 188.715 101.2C188.749 100.904 188.774 100.605 188.791 100.304C188.808 100.003 188.816 99.6998 188.816 99.3938C188.815 99.0906 188.807 98.7878 188.791 98.4853C188.775 98.1829 188.75 97.8842 188.715 97.5895C188.681 97.2937 188.639 97.0023 188.588 96.7153C188.538 96.4283 188.479 96.1442 188.412 95.8632C188.347 95.592 188.275 95.3278 188.196 95.0706C188.117 94.8135 188.031 94.5637 187.939 94.3213C187.847 94.0789 187.748 93.844 187.642 93.6167C187.536 93.3894 187.423 93.1704 187.304 92.9596C187.185 92.7485 187.06 92.5482 186.932 92.3589C186.803 92.1695 186.669 91.9919 186.531 91.8261C186.396 91.6642 186.253 91.5095 186.102 91.3629C185.958 91.2233 185.807 91.0924 185.647 90.9709C185.491 90.8514 185.326 90.743 185.155 90.6462C184.992 90.5547 184.823 90.4757 184.648 90.4102C184.479 90.3466 184.305 90.297 184.128 90.2621C183.952 90.2277 183.775 90.2083 183.596 90.2041Z" fill="#D9D9D9"/>
<path d="M183.596 123.08L62.032 131.999C61.7004 132.024 61.3706 132.069 61.0445 132.134C60.7152 132.2 60.3902 132.286 60.0712 132.391C59.7456 132.499 59.4266 132.626 59.1158 132.771C58.7954 132.921 58.4836 133.089 58.1819 133.274C57.8822 133.457 57.592 133.655 57.3125 133.868C57.0296 134.085 56.7549 134.316 56.4884 134.562C56.2219 134.809 55.9635 135.072 55.7131 135.352C55.4627 135.632 55.2214 135.928 54.9893 136.238C54.7571 136.55 54.5372 136.872 54.3296 137.206C54.1219 137.539 53.927 137.883 53.7449 138.236C53.5629 138.591 53.3939 138.955 53.2381 139.328C53.0822 139.702 52.9401 140.085 52.8115 140.477C52.6785 140.881 52.5619 141.291 52.4617 141.707C52.3616 142.123 52.2779 142.541 52.2106 142.963C52.1448 143.385 52.0944 143.81 52.0594 144.239C52.0244 144.667 52.0068 145.097 52.0068 145.529C52.0082 145.96 52.0257 146.387 52.0594 146.809C52.093 147.23 52.1434 147.645 52.2106 148.054C52.2786 148.463 52.3626 148.865 52.4628 149.259C52.5629 149.654 52.6795 150.04 52.8126 150.419C52.9411 150.785 53.0833 151.139 53.2391 151.481C53.3949 151.824 53.5639 152.154 53.746 152.471C53.9281 152.788 54.1229 153.092 54.3306 153.384C54.5362 153.673 54.7564 153.951 54.9903 154.218C55.2183 154.476 55.4599 154.723 55.7142 154.955C55.9604 155.182 56.2193 155.394 56.4894 155.59C56.7536 155.782 57.0288 155.958 57.3136 156.117C57.5946 156.275 57.8849 156.416 58.1829 156.539C58.4871 156.664 58.7991 156.77 59.1168 156.855C59.4309 156.938 59.75 157.001 60.0723 157.043C60.395 157.084 60.7202 157.105 61.0456 157.104C61.3758 157.104 61.7056 157.082 62.0331 157.04L183.596 141.495C183.776 141.472 183.954 141.434 184.128 141.382C184.306 141.328 184.48 141.26 184.648 141.18C184.823 141.095 184.993 140.998 185.155 140.89C185.326 140.775 185.491 140.649 185.647 140.514C185.806 140.376 185.958 140.229 186.102 140.075C186.247 139.916 186.39 139.747 186.53 139.567C186.668 139.386 186.802 139.194 186.931 138.992C187.06 138.79 187.184 138.577 187.303 138.353C187.423 138.131 187.535 137.901 187.641 137.661C187.747 137.421 187.847 137.176 187.939 136.923C188.032 136.67 188.118 136.411 188.196 136.146C188.275 135.881 188.347 135.61 188.412 135.332C188.48 135.045 188.539 134.755 188.588 134.461C188.638 134.168 188.68 133.872 188.715 133.574C188.749 133.276 188.774 132.975 188.791 132.672C188.808 132.369 188.816 132.065 188.816 131.759C188.815 131.455 188.806 131.153 188.79 130.854C188.775 130.554 188.749 130.259 188.714 129.967C188.681 129.675 188.639 129.387 188.588 129.104C188.538 128.82 188.479 128.542 188.412 128.269C188.347 128.004 188.275 127.748 188.196 127.499C188.119 127.249 188.033 127.008 187.94 126.774C187.846 126.541 187.747 126.316 187.642 126.099C187.535 125.884 187.422 125.676 187.302 125.476C187.183 125.276 187.059 125.088 186.93 124.912C186.805 124.741 186.671 124.576 186.529 124.419C186.395 124.27 186.252 124.129 186.101 123.997C185.957 123.872 185.805 123.755 185.646 123.65C185.489 123.545 185.324 123.453 185.154 123.373C184.99 123.297 184.82 123.234 184.647 123.185C184.305 123.09 183.95 123.054 183.596 123.08Z" fill="#D9D9D9"/>
<path d="M117.337 124.714C118.107 125.999 119.321 126.955 120.747 127.401C122.173 127.847 123.713 127.752 125.074 127.134C126.436 126.517 127.523 125.419 128.131 124.05C128.739 122.68 128.824 121.135 128.371 119.706L151.931 71.1469L140.654 64.2881L120.307 115.868C120.229 115.899 120.152 115.93 120.077 115.964C120.002 115.997 119.927 116.032 119.852 116.068C119.777 116.104 119.703 116.142 119.629 116.182C119.555 116.222 119.482 116.264 119.409 116.308C118.024 117.147 117.027 118.504 116.638 120.08C116.249 121.657 116.501 123.323 117.337 124.714L117.337 124.714Z" fill="#9E616A"/>
<path d="M147.434 89.8714L130.696 85.5676C130.696 85.5676 131.243 84.3283 132.131 82.2751C133.019 80.2219 134.26 77.3588 135.656 74.1083C137.052 70.8577 138.601 67.2256 140.113 63.6355C141.626 60.0453 143.097 56.4981 144.336 53.4235C145.576 50.3489 146.983 48.5075 148.398 47.4754C149.569 46.5827 151.044 46.1894 152.502 46.3809C153.635 46.5503 154.719 46.964 155.677 47.5936C156.131 47.877 156.558 48.2019 156.952 48.5643L160.833 55.6444L147.434 89.8714Z" fill="#CCCCCC"/>
<path d="M13.4841 86.0257C13.0788 86.0557 12.6754 86.1085 12.276 86.1838C11.874 86.2593 11.4764 86.3571 11.0852 86.4768C10.688 86.5985 10.2977 86.7417 9.91597 86.9057C9.52527 87.0736 9.14359 87.2618 8.77247 87.4696C8.40934 87.6744 8.05444 87.8971 7.70776 88.1378C7.36108 88.3784 7.02438 88.637 6.69767 88.9134C6.37131 89.1892 6.05457 89.4833 5.74747 89.7956C5.44036 90.1079 5.14448 90.4372 4.85979 90.7836C4.57509 91.13 4.30527 91.4889 4.05034 91.8602C3.7954 92.2315 3.55623 92.6141 3.33283 93.0079C3.11152 93.4025 2.90455 93.8077 2.71196 94.2236C2.51936 94.6396 2.34428 95.0652 2.1867 95.5005C2.02247 95.9519 1.87872 96.408 1.75545 96.869C1.63219 97.3299 1.52941 97.7947 1.44712 98.2633C1.36448 98.732 1.3025 99.2038 1.26118 99.6787C1.21986 100.154 1.19921 100.631 1.19922 101.109C1.19922 101.588 1.21987 102.061 1.26118 102.528C1.30249 102.994 1.36447 103.453 1.44712 103.906C1.52941 104.358 1.63219 104.802 1.75545 105.238C1.87871 105.674 2.02194 106.101 2.18512 106.519C2.3441 106.922 2.51919 107.313 2.71038 107.69C2.89937 108.064 3.10693 108.427 3.33229 108.78C3.55413 109.126 3.79363 109.46 4.04982 109.781C4.30357 110.1 4.57393 110.406 4.85977 110.696C5.14089 110.982 5.43723 111.252 5.74747 111.506C6.05127 111.754 6.36867 111.985 6.69819 112.198C7.3485 112.618 8.04465 112.961 8.77299 113.222C9.51964 113.49 10.2955 113.667 11.0842 113.749C11.4797 113.79 11.8773 113.808 12.2749 113.802C12.6789 113.796 13.0823 113.768 13.483 113.716C13.8874 113.664 14.2886 113.59 14.6848 113.494C15.0823 113.398 15.4742 113.28 15.8588 113.141C16.2478 113 16.6292 112.838 17.0013 112.657C17.3804 112.473 17.7499 112.269 18.1085 112.047C18.4577 111.829 18.7977 111.594 19.1286 111.344C19.4595 111.094 19.7801 110.827 20.0904 110.544C20.4006 110.261 20.7002 109.962 20.9891 109.648C21.278 109.334 21.5557 109.005 21.8221 108.66C22.0904 108.315 22.3429 107.96 22.5796 107.595C22.8163 107.229 23.038 106.854 23.2446 106.47C23.4512 106.085 23.6424 105.691 23.8182 105.289C23.994 104.886 24.1542 104.475 24.2988 104.056C24.4487 103.622 24.5798 103.184 24.6922 102.742C24.8046 102.3 24.8985 101.856 24.9738 101.408C25.0487 100.959 25.1051 100.509 25.1429 100.056C25.1807 99.6032 25.1996 99.1485 25.1996 98.6918C25.1993 98.2351 25.1804 97.784 25.1429 97.3385C25.1054 96.8931 25.049 96.4539 24.9738 96.0211C24.8988 95.589 24.805 95.1632 24.6922 94.7438C24.5795 94.3243 24.4483 93.9127 24.2988 93.5091C24.1535 93.1184 23.9933 92.7395 23.8182 92.3724C23.6406 92.0064 23.4486 91.6512 23.242 91.3069C22.833 90.6265 22.3573 89.9887 21.8222 89.403C21.5595 89.1149 21.2822 88.8407 20.9912 88.5814C20.7046 88.327 20.4046 88.0883 20.0925 87.8664C19.7833 87.6466 19.4622 87.4441 19.1307 87.2598C18.7994 87.0757 18.4582 86.9104 18.1085 86.7645C17.3866 86.4628 16.6316 86.2479 15.8594 86.1242C15.4707 86.0621 15.0787 86.0228 14.6854 86.0067C14.2847 85.9904 13.8835 85.9971 13.4836 86.0267" fill="#D9D9D9"/>
<path d="M13.4841 135.56C13.0788 135.59 12.6754 135.643 12.276 135.718C11.874 135.794 11.4764 135.892 11.0852 136.011C10.688 136.133 10.2977 136.276 9.91597 136.44C9.52527 136.608 9.14359 136.796 8.77247 137.004C8.40934 137.209 8.05444 137.432 7.70776 137.672C7.36108 137.913 7.02438 138.172 6.69767 138.448C6.37131 138.724 6.05457 139.018 5.74747 139.33C5.44036 139.643 5.14448 139.972 4.85979 140.318C4.57509 140.665 4.30527 141.024 4.05034 141.395C3.7954 141.766 3.55623 142.149 3.33283 142.543C3.11152 142.937 2.90455 143.342 2.71196 143.758C2.51936 144.174 2.34428 144.6 2.1867 145.035C2.02247 145.487 1.87872 145.943 1.75545 146.404C1.63219 146.865 1.52941 147.329 1.44712 147.798C1.36448 148.267 1.3025 148.738 1.26118 149.213C1.21986 149.688 1.19921 150.165 1.19922 150.644C1.19922 151.123 1.21987 151.596 1.26118 152.062C1.30249 152.529 1.36447 152.988 1.44712 153.44C1.52941 153.892 1.63219 154.336 1.75545 154.772C1.87871 155.208 2.02194 155.635 2.18512 156.053C2.3441 156.457 2.51919 156.848 2.71038 157.225C2.89937 157.598 3.10693 157.962 3.33229 158.315C3.55413 158.66 3.79363 158.995 4.04982 159.316C4.30357 159.635 4.57393 159.941 4.85977 160.231C5.14089 160.517 5.43723 160.787 5.74747 161.041C6.05127 161.289 6.36867 161.52 6.69819 161.732C7.3485 162.152 8.04465 162.496 8.77299 162.757C9.51964 163.025 10.2955 163.201 11.0842 163.284C11.4797 163.325 11.8773 163.342 12.2749 163.337C12.6789 163.331 13.0823 163.302 13.483 163.251C13.8874 163.199 14.2886 163.125 14.6848 163.029C15.0823 162.932 15.4742 162.814 15.8588 162.675C16.2478 162.534 16.6292 162.373 17.0013 162.192C17.3804 162.007 17.7499 161.804 18.1085 161.582C18.4577 161.363 18.7977 161.129 19.1286 160.879C19.4595 160.629 19.7801 160.362 20.0904 160.079C20.4006 159.796 20.7002 159.497 20.9891 159.183C21.278 158.869 21.5557 158.539 21.8221 158.194C22.0904 157.85 22.3429 157.495 22.5796 157.129C22.8163 156.764 23.038 156.389 23.2446 156.004C23.4512 155.62 23.6424 155.226 23.8182 154.823C23.994 154.421 24.1542 154.01 24.2988 153.59C24.4487 153.156 24.5798 152.718 24.6922 152.277C24.8046 151.835 24.8985 151.39 24.9738 150.942C25.0487 150.494 25.1051 150.044 25.1429 149.591C25.1807 149.138 25.1996 148.683 25.1996 148.226C25.1993 147.77 25.1804 147.319 25.1429 146.873C25.1054 146.428 25.049 145.989 24.9738 145.556C24.8988 145.124 24.805 144.698 24.6922 144.278C24.5795 143.859 24.4483 143.447 24.2988 143.044C24.1535 142.653 23.9933 142.274 23.8182 141.907C23.6406 141.541 23.4486 141.186 23.242 140.842C22.833 140.161 22.3573 139.523 21.8222 138.938C21.5595 138.65 21.2822 138.375 20.9912 138.116C20.7046 137.862 20.4046 137.623 20.0925 137.401C19.7833 137.181 19.4622 136.979 19.1307 136.794C18.7994 136.61 18.4582 136.445 18.1085 136.299C17.3866 135.997 16.6316 135.783 15.8594 135.659C15.4707 135.597 15.0787 135.557 14.6854 135.541C14.2847 135.525 13.8835 135.532 13.4836 135.561" fill="#D9D9D9"/>
<path d="M13.4864 32.3644C13.0833 32.3546 12.68 32.3678 12.2783 32.404C11.8783 32.44 11.4808 32.4991 11.0876 32.581C10.6921 32.6639 10.3017 32.7695 9.91831 32.8972C9.529 33.0265 9.14724 33.1776 8.77482 33.3498C8.41028 33.5183 8.05488 33.706 7.7101 33.9121C7.36192 34.1203 7.02477 34.3465 6.70001 34.5898C6.37001 34.837 6.05271 35.1008 5.74929 35.3802C5.44079 35.6644 5.14437 35.9657 4.86002 36.284C4.57533 36.6026 4.30551 36.9353 4.05058 37.282C3.79564 37.6288 3.55647 37.9882 3.33307 38.3602C3.1107 38.7371 2.90322 39.1234 2.71062 39.519C2.51803 39.9145 2.34295 40.3231 2.18536 40.7447C2.02218 41.1792 1.87896 41.621 1.75569 42.07C1.63242 42.519 1.52965 42.9738 1.44736 43.4343C1.36471 43.8963 1.30274 44.3621 1.26142 44.8318C1.2201 45.3015 1.19945 45.7758 1.19946 46.2546C1.19946 46.7327 1.22011 47.207 1.26142 47.6774C1.30273 48.1478 1.3647 48.6131 1.44736 49.0733C1.52965 49.5336 1.63243 49.9876 1.75569 50.4355C1.87895 50.8835 2.02218 51.3243 2.18536 51.7582C2.34434 52.1773 2.51942 52.5848 2.71062 52.9808C2.90322 53.3753 3.11122 53.758 3.33461 54.129C3.558 54.5 3.79719 54.8578 4.05213 55.2024C4.30671 55.5481 4.57652 55.8791 4.86157 56.1952C5.14662 56.5114 5.44252 56.81 5.74926 57.0911C6.05109 57.3694 6.36683 57.6322 6.69526 57.8783C7.02006 58.1195 7.35722 58.3434 7.70535 58.5492C8.05019 58.7531 8.4056 58.9385 8.77006 59.1046C9.14258 59.2745 9.52436 59.4231 9.91357 59.5499C10.6794 59.7985 11.4713 59.9576 12.2736 60.0241C13.0769 60.091 13.8852 60.0664 14.683 59.9509C15.0785 59.8935 15.4705 59.8137 15.8569 59.7117C16.2444 59.6092 16.6258 59.485 16.9994 59.3396C17.3773 59.1926 17.747 59.025 18.1066 58.8374C18.4574 58.6547 18.7986 58.454 19.1288 58.2362C19.461 58.0169 19.782 57.7811 20.0906 57.5295C20.4008 57.2766 20.7004 57.0071 20.9893 56.7211C21.2782 56.4352 21.5559 56.1327 21.8224 55.8137C22.0906 55.4947 22.3431 55.1641 22.5798 54.822C22.8165 54.4798 23.0382 54.1264 23.2448 53.7617C23.4521 53.3971 23.6433 53.022 23.8184 52.6367C23.9935 52.2513 24.1537 51.8566 24.299 51.4526C24.4489 51.0331 24.58 50.608 24.6924 50.1773C24.8048 49.7466 24.8987 49.311 24.974 48.8704C25.0489 48.4282 25.1053 47.9824 25.1431 47.533C25.1809 47.0837 25.1998 46.6307 25.1998 46.174C25.1995 45.7176 25.1806 45.2648 25.1431 44.8155C25.1056 44.3662 25.0493 43.9216 24.974 43.4817C24.899 43.0415 24.8052 42.6063 24.6924 42.1759C24.5797 41.7456 24.4485 41.3212 24.299 40.9028C24.1537 40.4984 23.9935 40.1041 23.8184 39.7197C23.6433 39.3354 23.4512 38.9611 23.2422 38.5968C23.0356 38.2356 22.8139 37.8843 22.5772 37.5429C22.3404 37.2014 22.0888 36.8726 21.8224 36.5564C21.5576 36.2406 21.2807 35.9404 20.9914 35.6558C20.7021 35.3712 20.4026 35.1037 20.0927 34.8532C19.7843 34.6032 19.4634 34.3689 19.1314 34.1513C18.8011 33.9355 18.46 33.7369 18.1093 33.5564C17.7495 33.371 17.3799 33.2057 17.002 33.0611C16.6283 32.918 16.2469 32.7963 15.8596 32.6964C15.473 32.5968 15.081 32.5194 14.6856 32.4645C14.2871 32.4094 13.8859 32.3771 13.4838 32.3676M13.4838 31.0491C15.2483 31.0976 16.9789 31.5469 18.5452 32.3634C20.1018 33.1799 21.4815 34.2981 22.6045 35.6532C23.7783 37.0654 24.6925 38.6757 25.3043 40.409C26.6147 44.1397 26.6147 48.2077 25.3043 51.9384C24.6919 53.6767 23.7779 55.2927 22.6045 56.7117C21.4814 58.0732 20.1018 59.1993 18.5447 60.0257C16.9804 60.8519 15.2501 61.3126 13.4833 61.3732C11.7056 61.4317 9.93832 61.0782 8.31886 60.3403C6.68396 59.589 5.22136 58.5071 4.02272 57.1622C2.74987 55.7381 1.75366 54.0877 1.08544 52.2963C-0.361813 48.3963 -0.361813 44.104 1.08544 40.204C1.75432 38.4072 2.75033 36.7507 4.02272 35.3191C5.22099 33.9667 6.68322 32.8755 8.31886 32.1131C9.93706 31.3647 11.7052 31 13.4864 31.047L13.4838 31.0491Z" fill="#FC4700"/>
<path d="M13.4852 49.9381L9.34766 41.2906L10.3299 40.6487L13.7378 47.7527L28.0471 30.8794L28.9132 31.8053L13.4852 49.9381Z" fill="#FC4700"/>
<path d="M164.066 220.662L153.824 220.622L157.127 247.472L164.066 247.507V220.662Z" fill="#9E616A"/>
<path d="M165.836 254.263L143.471 254.144V253.861C143.471 253.285 143.527 252.71 143.638 252.146C143.858 251.031 144.296 249.972 144.928 249.029C145.569 248.073 146.391 247.252 147.347 246.614C148.29 245.985 149.348 245.55 150.46 245.334C151.024 245.225 151.597 245.172 152.171 245.176L165.836 245.243V254.263Z" fill="#2F2E41"/>
<path d="M131.27 220.534L121.057 220.494L124.349 247.308L131.27 247.343V220.534Z" fill="#9E616A"/>
<path d="M133.035 254.089L110.729 253.971V253.688C110.729 253.113 110.785 252.539 110.896 251.975C111.115 250.862 111.552 249.804 112.182 248.862C112.821 247.907 113.641 247.088 114.595 246.45C115.536 245.822 116.591 245.388 117.7 245.173C118.263 245.064 118.834 245.011 119.407 245.015L133.035 245.082V254.089Z" fill="#2F2E41"/>
<path d="M130.836 110.79L113.662 175.091L119.948 236.728L133.868 237.114L130.837 181.458L148.201 153.684L151.968 237.492L164.594 236.597L171.618 164.539C174.003 158.912 175.753 153.035 176.834 147.018C177.683 142.294 178.096 137.502 178.067 132.703C178.053 129.472 177.806 126.246 177.327 123.05C177.156 121.86 176.924 120.678 176.633 119.511L171.512 114.303L130.836 110.79Z" fill="#2F2E41"/>
<path d="M153.591 121.544C150.703 121.544 147.993 121.451 145.535 121.268C143.025 121.095 140.528 120.765 138.059 120.28C135.956 119.886 133.909 119.24 131.961 118.354C130.392 117.675 129.029 116.595 128.005 115.222L127.888 115.052L132.583 84.4021L137.645 49.9402C137.978 47.6597 139.135 45.5817 140.897 44.1018C142.658 42.622 144.9 41.8435 147.197 41.9146L163.051 42.402C164.24 42.4386 165.409 42.7142 166.49 43.2127C167.571 43.7111 168.541 44.4221 169.342 45.3036C170.144 46.1851 170.761 47.2191 171.157 48.3443C171.553 49.4696 171.72 50.6631 171.648 51.8542L169.567 86.1269L177.244 119.933L176.7 120.009C176.481 120.038 175.639 120.15 174.319 120.299C172.594 120.493 170.833 120.669 169.084 120.82C166.61 121.034 164.189 121.202 161.888 121.32C158.97 121.469 156.174 121.542 153.591 121.544Z" fill="#CCCCCC"/>
<path d="M144.794 35.8248C144.79 35.8248 144.785 35.8248 144.781 35.8248C144.449 35.8246 144.119 35.7587 143.812 35.6308C143.505 35.5029 143.226 35.3155 142.991 35.0794C142.756 34.8433 142.569 34.5631 142.442 34.2547C142.315 33.9463 142.25 33.6159 142.25 33.2822V19.1016C142.248 16.561 142.754 14.0459 143.74 11.7057C145.671 7.13896 149.283 3.49575 153.825 1.53533C156.698 0.299246 159.831 -0.202825 162.945 0.0740772C166.058 0.350979 169.055 1.39821 171.666 3.12199C174.277 4.84577 176.421 7.1923 177.906 9.95143C179.391 12.7106 180.171 15.7962 180.176 18.932V33.1341C180.177 33.4759 180.108 33.8143 179.976 34.129C179.715 34.743 179.229 35.2324 178.617 35.4949C178.304 35.6293 177.966 35.699 177.625 35.6999L144.792 35.8248H144.794Z" fill="#2F2E41"/>
<path d="M169.775 14.2381C171.098 16.6615 171.675 19.4237 171.433 22.1759C171.192 24.9281 170.143 27.5469 168.419 29.7014C166.695 31.8559 164.374 33.4496 161.747 34.2811C159.121 35.1127 156.308 35.1448 153.664 34.3734C151.913 33.8686 150.279 33.0202 148.857 31.8773C147.435 30.7345 146.253 29.32 145.38 27.7157C144.061 25.2934 143.486 22.5334 143.728 19.7837C143.97 17.034 145.018 14.4177 146.74 12.2648C148.462 10.1118 150.781 8.51852 153.404 7.68582C156.027 6.85313 158.838 6.81831 161.481 7.58573C163.233 8.08869 164.869 8.93576 166.293 10.0778C167.717 11.2198 168.9 12.6341 169.775 14.2386V14.2381Z" fill="#9E616A"/>
<path d="M137.767 20.2559C137.765 18.2466 138.166 16.2574 138.945 14.4066C140.472 10.7955 143.329 7.91477 146.92 6.36517C148.763 5.57304 150.746 5.16086 152.751 5.15315L155.58 5.13892C155.612 5.13874 155.643 5.13865 155.675 5.13867C157.634 5.13988 159.574 5.52818 161.383 6.2814C163.193 7.03461 164.836 8.138 166.221 9.52855C167.605 10.9191 168.703 12.5696 169.452 14.3858C170.2 16.202 170.585 18.1483 170.584 20.1136V20.3977L164.599 20.4219L162.558 14.7022L162.15 20.433L159.059 20.4466L158.03 17.561L157.823 20.4503L137.769 20.5405L137.767 20.2559Z" fill="#2F2E41"/>
<path d="M113.673 50.0872C112.752 50.3132 111.891 50.7366 111.148 51.3283C110.568 51.7887 110.072 52.3467 109.682 52.9773C108.914 54.2253 108.575 55.6923 108.718 57.1523C108.791 57.8899 108.99 58.6093 109.308 59.2785C109.699 60.1125 110.262 60.8538 110.96 61.4532C111.659 62.0527 112.475 62.4968 113.357 62.7563C114.239 63.0157 115.165 63.0846 116.076 62.9583C116.986 62.832 117.859 62.5135 118.637 62.0237C118.695 61.9865 118.752 61.9488 118.808 61.9106C118.864 61.8723 118.919 61.8333 118.974 61.7935C119.028 61.7535 119.082 61.713 119.135 61.6719C119.187 61.6307 119.24 61.589 119.292 61.5466L152.316 73.3383C153.332 73.7009 154.439 73.7226 155.468 73.4C156.497 73.0774 157.395 72.4281 158.024 71.5497L165.854 60.6743L156.388 54.2795L151.42 59.9407L121.197 53.9092C121.164 53.8306 121.13 53.7524 121.095 53.6746C121.059 53.5969 121.023 53.5194 120.984 53.4423C120.945 53.3654 120.905 53.289 120.863 53.2129C120.822 53.1368 120.778 53.0613 120.732 52.9864C120.011 51.8176 118.94 50.9076 117.672 50.3869C116.404 49.8661 115.004 49.7612 113.673 50.0872Z" fill="#9E616A"/>
<path d="M151.953 56.3706C152.941 55.1337 154.322 53.5278 155.726 51.935C157.129 50.3422 158.553 48.7635 159.627 47.5825C160.702 46.4015 161.425 45.6188 161.425 45.6188C162.416 44.1147 163.896 43.0013 165.613 42.4677C167.33 41.9342 169.178 42.0134 170.844 42.6918C172.509 43.3703 173.889 44.6062 174.749 46.1897C175.609 47.7731 175.896 49.6065 175.562 51.3783C175.371 52.3983 174.976 53.369 174.401 54.2319C174.401 54.2319 173.324 55.6463 171.698 57.7575C170.071 59.8688 167.895 62.6792 165.7 65.4732C163.506 68.2672 161.289 71.0467 159.58 73.0985C157.872 75.1503 156.669 76.4757 156.5 76.3622L150.539 58.5865C150.369 58.473 150.965 57.6075 151.953 56.3706Z" fill="#CCCCCC"/>
<path d="M155.491 35.3779C155.398 35.8364 155.434 36.312 155.596 36.7507C155.678 36.9752 155.79 37.1872 155.93 37.3804C156.05 37.545 156.189 37.6949 156.344 37.8267C156.804 38.2161 157.386 38.4285 157.987 38.4259C158.025 38.4255 158.062 38.4245 158.1 38.4227C158.137 38.421 158.175 38.4183 158.212 38.4148C158.25 38.4117 158.288 38.4075 158.325 38.4022C158.363 38.3969 158.4 38.3909 158.438 38.3843L160.562 37.997L163.488 31.7261V37.47L173.145 35.7257V11.3511L156.955 11.4291L157.355 11.8954C158.684 13.4603 159.556 15.3625 159.877 17.3927C160.191 19.449 160.151 21.5442 159.76 23.5871C159.38 25.6544 158.802 27.6802 158.036 29.6367C157.366 31.37 156.597 33.0631 155.733 34.7076C155.622 34.9186 155.54 35.1442 155.491 35.3779Z" fill="#2F2E41"/>
<path d="M43.349 255H243.475C243.614 255 243.748 254.945 243.846 254.846C243.945 254.747 244 254.613 244 254.473C244 254.333 243.945 254.199 243.846 254.101C243.748 254.002 243.614 253.946 243.475 253.946H43.349C43.2097 253.946 43.0761 254.002 42.9776 254.101C42.8791 254.199 42.8237 254.333 42.8237 254.473C42.8237 254.613 42.8791 254.747 42.9776 254.846C43.0761 254.945 43.2097 255 43.349 255Z" fill="#CACACA"/>
</g>
<defs>
<clipPath id="clip0_6738_9893">
<rect width="244" height="255" fill="white"/>
</clipPath>
</defs>
</svg>
