<svg width="353" height="270" viewBox="0 0 353 270" fill="none" xmlns="http://www.w3.org/2000/svg">
<g clip-path="url(#clip0_6738_9927)">
<path d="M204.517 269.216C204.466 269.131 203.244 267.093 202.82 262.86C202.432 258.976 202.681 252.431 206.078 243.3C212.513 226.001 204.595 212.045 204.515 211.906L204.905 211.679C206.429 214.595 207.53 217.713 208.176 220.939C209.77 228.452 209.19 236.263 206.502 243.457C200.078 260.726 204.854 268.9 204.903 268.981L204.517 269.216Z" fill="#F2F2F2"/>
<path d="M202.001 210.89C203.622 210.89 204.936 209.577 204.936 207.957C204.936 206.337 203.622 205.024 202.001 205.024C200.38 205.024 199.066 206.337 199.066 207.957C199.066 209.577 200.38 210.89 202.001 210.89Z" fill="#F2F2F2"/>
<path d="M211.256 221.72C212.877 221.72 214.191 220.406 214.191 218.787C214.191 217.167 212.877 215.854 211.256 215.854C209.635 215.854 208.321 217.167 208.321 218.787C208.321 220.406 209.635 221.72 211.256 221.72Z" fill="#F2F2F2"/>
<path d="M204.936 228.939C206.556 228.939 207.87 227.626 207.87 226.006C207.87 224.386 206.556 223.073 204.936 223.073C203.315 223.073 202.001 224.386 202.001 226.006C202.001 227.626 203.315 228.939 204.936 228.939Z" fill="#F2F2F2"/>
<path d="M212.61 235.031C214.231 235.031 215.545 233.717 215.545 232.098C215.545 230.478 214.231 229.165 212.61 229.165C210.99 229.165 209.676 230.478 209.676 232.098C209.676 233.717 210.99 235.031 212.61 235.031Z" fill="#F2F2F2"/>
<path d="M202.678 244.506C204.299 244.506 205.613 243.193 205.613 241.573C205.613 239.953 204.299 238.64 202.678 238.64C201.058 238.64 199.744 239.953 199.744 241.573C199.744 243.193 201.058 244.506 202.678 244.506Z" fill="#F2F2F2"/>
<path d="M206.29 269.322C206.29 269.322 203.355 262.103 212.159 256.688L206.29 269.322Z" fill="#F2F2F2"/>
<path d="M202.681 269.193C202.681 269.193 201.346 261.515 191.009 261.581L202.681 269.193Z" fill="#F2F2F2"/>
<path d="M50.5939 55.8415C48.2474 55.8415 45.9537 55.146 44.0027 53.8431C42.0516 52.5402 40.531 50.6883 39.6331 48.5216C38.7351 46.355 38.5002 43.9708 38.9579 41.6707C39.4157 39.3706 40.5456 37.2577 42.2048 35.5994C43.864 33.9411 45.978 32.8118 48.2794 32.3543C50.5807 31.8968 52.9662 32.1316 55.134 33.0291C57.3018 33.9265 59.1547 35.4463 60.4584 37.3963C61.762 39.3462 62.4578 41.6388 62.4578 43.984C62.4578 47.1288 61.2078 50.1448 58.9829 52.3685C56.758 54.5922 53.7404 55.8415 50.5939 55.8415ZM50.5939 32.5357C48.3283 32.5357 46.1136 33.2072 44.2299 34.4652C42.3461 35.7232 40.8779 37.5112 40.0109 39.6032C39.1439 41.6952 38.9171 43.9971 39.3591 46.218C39.8011 48.4388 40.892 50.4788 42.494 52.0799C44.096 53.681 46.1371 54.7714 48.3591 55.2132C50.5812 55.6549 52.8844 55.4282 54.9775 54.5617C57.0706 53.6951 58.8596 52.2277 60.1183 50.345C61.377 48.4623 62.0488 46.2488 62.0488 43.9844C62.0488 42.481 61.7525 40.9922 61.1769 39.6032C60.6012 38.2142 59.7574 36.9521 58.6937 35.8889C57.63 34.8258 56.3673 33.9825 54.9775 33.4072C53.5877 32.8318 52.0982 32.5357 50.5939 32.5357Z" fill="#3F3D56"/>
<path d="M170.858 55.8415C168.511 55.8415 166.217 55.146 164.266 53.8431C162.315 52.5402 160.795 50.6883 159.897 48.5216C158.999 46.355 158.764 43.9708 159.222 41.6707C159.679 39.3706 160.809 37.2577 162.469 35.5994C164.128 33.9411 166.242 32.8118 168.543 32.3543C170.844 31.8968 173.23 32.1316 175.398 33.0291C177.566 33.9265 179.418 35.4463 180.722 37.3963C182.026 39.3462 182.721 41.6388 182.721 43.984C182.721 47.1288 181.472 50.1448 179.247 52.3685C177.022 54.5922 174.004 55.8415 170.858 55.8415ZM170.858 32.5357C168.592 32.5357 166.377 33.2072 164.494 34.4652C162.61 35.7232 161.142 37.5112 160.275 39.6032C159.408 41.6952 159.181 43.9971 159.623 46.218C160.065 48.4388 161.156 50.4788 162.758 52.0799C164.36 53.681 166.401 54.7714 168.623 55.2132C170.845 55.6549 173.148 55.4282 175.241 54.5617C177.334 53.6951 179.123 52.2277 180.382 50.345C181.641 48.4623 182.312 46.2488 182.312 43.9844C182.312 42.481 182.016 40.9922 181.441 39.6032C180.865 38.2142 180.021 36.9521 178.957 35.8889C177.894 34.8258 176.631 33.9825 175.241 33.4072C173.851 32.8318 172.362 32.5357 170.858 32.5357Z" fill="#3F3D56"/>
<path d="M214.295 28.3213H7.62228C3.59895 28.3281 0.338516 32.3539 0.333008 37.3224V135.802C0.338516 140.77 3.59895 144.794 7.62228 144.803H214.295C218.318 144.796 221.579 140.77 221.584 135.802V37.322C221.579 32.3539 218.318 28.33 214.295 28.3208V28.3213ZM220.728 135.802C220.723 140.186 217.846 143.738 214.296 143.744H7.62228C4.07174 143.738 1.19597 140.186 1.19046 135.802V37.322C1.19459 32.9379 4.07174 29.3852 7.62228 29.3801H214.295C217.845 29.3856 220.721 32.9379 220.727 37.322L220.728 135.802Z" fill="#3F3D56"/>
<path d="M52.2028 67.9297H15.481V93.6211H52.2028V67.9297Z" fill="#D9D9D9"/>
<path d="M103.613 67.9297H66.8911V93.6211H103.613V67.9297Z" fill="#D9D9D9"/>
<path d="M155.024 67.9297H118.302V93.6211H155.024V67.9297Z" fill="#D9D9D9"/>
<path d="M206.434 67.9297H169.712V93.6211H206.434V67.9297Z" fill="#D9D9D9"/>
<path d="M52.2028 105.549H15.481V131.241H52.2028V105.549Z" fill="#D9D9D9"/>
<path d="M103.613 105.549H66.8911V131.241H103.613V105.549Z" fill="#D9D9D9"/>
<path d="M155.024 105.549H118.302V131.241H155.024V105.549Z" fill="#D9D9D9"/>
<path d="M206.434 105.549H169.712V131.241H206.434V105.549Z" fill="#D9D9D9"/>
<path d="M79.1237 131.091L70.4551 119.126L72.8163 117.417L79.4519 126.576L104.844 100.503L106.932 102.535L79.1237 131.091Z" fill="#FC4700"/>
<path d="M130.993 93.4717L122.325 81.5063L124.686 79.7979L131.322 88.9564L156.713 62.8833L158.802 64.9157L130.993 93.4717Z" fill="#FC4700"/>
<path d="M50.75 0H50.1226V44.0378H50.75V0Z" fill="#2F2E41"/>
<path d="M171.473 0H170.846V44.0378H171.473V0Z" fill="#2F2E41"/>
<path d="M351.66 269.999H177.576C177.489 270.004 177.403 269.992 177.322 269.963C177.24 269.934 177.166 269.889 177.103 269.83C177.04 269.771 176.989 269.699 176.955 269.62C176.921 269.541 176.903 269.455 176.903 269.369C176.903 269.283 176.921 269.197 176.955 269.118C176.989 269.039 177.04 268.968 177.103 268.909C177.166 268.85 177.24 268.804 177.322 268.775C177.403 268.746 177.489 268.734 177.576 268.74H351.66C351.747 268.734 351.833 268.746 351.914 268.775C351.996 268.804 352.07 268.85 352.133 268.909C352.197 268.968 352.247 269.039 352.281 269.118C352.316 269.197 352.333 269.283 352.333 269.369C352.333 269.455 352.316 269.541 352.281 269.62C352.247 269.699 352.197 269.771 352.133 269.83C352.07 269.889 351.996 269.934 351.914 269.963C351.833 269.992 351.747 270.004 351.66 269.999Z" fill="#3F3D56"/>
<path d="M28.1721 93.4717L19.5034 81.5063L21.8646 79.7979L28.5003 88.9564L53.892 62.8833L55.9806 64.9157L28.1721 93.4717Z" fill="#FC4700"/>
<path d="M301.567 171.025C301.81 170.952 302.059 170.899 302.311 170.866L312.363 150.45L309.294 145.852L315.632 140.316L323.599 150.06L307.372 173.663C307.772 174.556 307.891 175.55 307.712 176.512C307.534 177.474 307.066 178.358 306.372 179.048C305.678 179.738 304.79 180.2 303.826 180.373C302.863 180.546 301.87 180.422 300.979 180.017C300.087 179.612 299.341 178.946 298.838 178.106C298.335 177.267 298.1 176.294 298.164 175.318C298.228 174.342 298.588 173.408 299.195 172.641C299.803 171.874 300.63 171.311 301.567 171.025Z" fill="#FFB8B8"/>
<path d="M318.726 143.14C318.589 143.284 318.432 143.407 318.26 143.507L307.975 149.466C307.501 149.74 306.937 149.815 306.408 149.675C305.878 149.534 305.427 149.189 305.152 148.715C305.123 148.665 305.096 148.615 305.072 148.563L300.069 138C299.856 137.556 299.81 137.05 299.939 136.574C300.069 136.099 300.365 135.686 300.774 135.411L307.149 131.076C307.547 130.806 308.028 130.682 308.507 130.728C308.986 130.774 309.434 130.985 309.774 131.326L318.685 140.263C319.065 140.643 319.281 141.156 319.288 141.693C319.296 142.23 319.094 142.749 318.725 143.139L318.726 143.14Z" fill="#D9D9D9"/>
<path d="M333.167 260.114L327.737 261.59L319.454 241.358L327.468 239.179L333.167 260.114Z" fill="#FFB8B8"/>
<path d="M323.437 261.092L333.909 258.244L335.703 264.833L318.637 269.473C318.161 267.726 318.4 265.86 319.3 264.288C320.2 262.716 321.688 261.566 323.437 261.09L323.437 261.092Z" fill="#2F2E41"/>
<path d="M286.745 264.255H281.117L278.44 242.561H286.745V264.255Z" fill="#FFB8B8"/>
<path d="M277.098 262.647H287.951V269.478H270.265C270.265 268.581 270.441 267.693 270.785 266.864C271.128 266.035 271.631 265.282 272.266 264.648C272.9 264.014 273.654 263.511 274.483 263.168C275.312 262.824 276.201 262.648 277.098 262.647Z" fill="#2F2E41"/>
<path d="M292.674 123.875C298.901 123.875 303.949 118.83 303.949 112.607C303.949 106.384 298.901 101.339 292.674 101.339C286.448 101.339 281.4 106.384 281.4 112.607C281.4 118.83 286.448 123.875 292.674 123.875Z" fill="#FFB8B8"/>
<path d="M286.401 248.787H278.711C278.185 248.787 277.678 248.586 277.295 248.226C276.911 247.867 276.679 247.374 276.645 246.85C274.354 210.441 275.694 184.324 280.864 164.659C280.886 164.573 280.914 164.488 280.947 164.406L281.36 163.377C281.512 162.993 281.777 162.663 282.119 162.432C282.461 162.2 282.865 162.077 283.278 162.079H299.093C299.391 162.078 299.685 162.143 299.956 162.267C300.227 162.392 300.467 162.573 300.661 162.799L302.809 165.304C302.851 165.353 302.89 165.403 302.928 165.455C312.613 178.955 321.294 205.348 331.347 240.822C331.495 241.337 331.436 241.89 331.183 242.363C330.929 242.836 330.501 243.191 329.989 243.353L321.727 245.996C321.252 246.146 320.74 246.12 320.283 245.923C319.826 245.727 319.455 245.373 319.236 244.926L297.79 200.468C297.64 200.157 297.393 199.903 297.088 199.743C296.782 199.583 296.433 199.526 296.092 199.58C295.751 199.633 295.436 199.796 295.195 200.042C294.953 200.288 294.798 200.606 294.751 200.948L288.448 247.002C288.378 247.496 288.133 247.948 287.757 248.276C287.381 248.604 286.9 248.785 286.401 248.787Z" fill="#2F2E41"/>
<path d="M301.942 165.488H301.878L282.667 164.881C282.173 164.867 281.701 164.676 281.336 164.343C280.971 164.01 280.738 163.557 280.68 163.067C278.247 143.366 284.923 138.089 287.908 136.733C288.157 136.62 288.373 136.445 288.535 136.225C288.697 136.005 288.799 135.746 288.831 135.474L289.09 133.41C289.134 133.045 289.275 132.699 289.498 132.407C294.177 126.349 300.566 124.409 303.957 123.792C304.495 123.696 305.05 123.817 305.499 124.129C305.948 124.441 306.255 124.918 306.352 125.457C306.358 125.49 306.363 125.524 306.367 125.559L306.754 128.524C306.794 128.806 306.906 129.074 307.081 129.299C316.84 142.05 305.969 160.875 303.69 164.52C303.504 164.816 303.247 165.06 302.941 165.229C302.635 165.398 302.292 165.487 301.942 165.488Z" fill="#D9D9D9"/>
<path d="M295.897 190.111L281.384 192.907L280.833 190.046L291.942 187.906L279.03 153.886L281.755 152.854L295.897 190.111Z" fill="#FC4700"/>
<path d="M315.421 113.875C312.906 110.336 309.89 107.18 306.467 104.507C303.621 102.286 300.454 100.388 296.962 99.4807C293.469 98.5732 289.608 98.7273 286.421 100.421C283.234 102.114 279.937 105.479 279.917 109.086C279.911 110.246 280.206 111.814 281.348 111.613L281.678 111.659L289.944 109.991L293.464 122.201C293.712 123.059 294.044 124.019 294.858 124.384C295.626 124.729 296.511 124.404 297.291 124.08C297.419 124.027 298.516 121.565 298.516 121.565C298.543 121.488 298.591 121.42 298.654 121.368C298.716 121.315 298.792 121.28 298.872 121.267C298.953 121.253 299.036 121.262 299.112 121.291C299.188 121.32 299.256 121.369 299.307 121.433L299.958 122.247C300.083 122.403 300.254 122.514 300.448 122.564C300.641 122.614 300.845 122.599 301.029 122.523L314.509 116.898C315.13 116.639 315.824 116.302 316.004 115.653C316.173 115.029 315.793 114.401 315.421 113.875Z" fill="#2F2E41"/>
<path d="M300.151 193.489C300.741 193.075 301.233 192.537 301.593 191.913C301.952 191.288 302.17 190.593 302.232 189.875C302.293 189.157 302.197 188.435 301.949 187.758C301.701 187.082 301.307 186.468 300.796 185.96L304.364 142.894L293.74 144.355L293.538 186.195C292.74 187.109 292.305 188.285 292.316 189.499C292.327 190.712 292.784 191.88 293.599 192.779C294.414 193.679 295.531 194.248 296.738 194.379C297.946 194.51 299.159 194.193 300.148 193.49L300.151 193.489Z" fill="#FFB8B8"/>
<path d="M305.059 149.095C304.86 149.096 304.662 149.067 304.471 149.011L293.066 145.658C292.806 145.581 292.563 145.454 292.352 145.284C292.141 145.114 291.966 144.904 291.836 144.666C291.706 144.428 291.624 144.167 291.595 143.897C291.566 143.627 291.591 143.355 291.667 143.095C291.684 143.04 291.702 142.986 291.723 142.932L295.943 132.035C296.119 131.574 296.455 131.192 296.889 130.959C297.324 130.725 297.827 130.656 298.309 130.763L305.844 132.4C306.314 132.502 306.734 132.765 307.031 133.144C307.327 133.523 307.483 133.993 307.469 134.474L307.119 147.087C307.104 147.623 306.881 148.133 306.496 148.508C306.112 148.883 305.596 149.094 305.059 149.095V149.095Z" fill="#D9D9D9"/>
</g>
<defs>
<clipPath id="clip0_6738_9927">
<rect width="352" height="270" fill="white" transform="translate(0.333008)"/>
</clipPath>
</defs>
</svg>
