<svg width="151" height="85" viewBox="0 0 151 85" fill="none" xmlns="http://www.w3.org/2000/svg">
<path d="M2.03169 45.8643H4.09099V53.1735H12.1855V45.8643H16.2765V65.4317H12.1855V56.7696H4.09099V65.4317H0V47.9644C0 46.8413 0.899221 45.8643 2.03169 45.8643Z" fill="#282828"/>
<path d="M21.385 54.181H17.5257C17.9907 51.361 19.9917 49.9792 23.5318 49.9792C27.7686 49.9792 29.9153 51.361 30.0028 54.181V59.3612C30.0028 63.5629 27.4494 65.4332 23.3001 65.7208C19.6142 66.0084 17.0608 64.3116 17.0608 60.9439C17.1483 57.29 19.8183 56.3115 23.7052 55.9371C25.3594 55.7362 26.2003 55.2462 26.2003 54.4123C26.1128 53.5494 25.3011 53.1172 23.7052 53.1172C22.341 53.1172 21.5876 53.4627 21.3835 54.1825M26.2586 59.1892V57.7785C25.3594 58.1529 24.3144 58.4694 23.1835 58.6992C21.6459 58.9868 20.8618 59.7066 20.8618 60.8282C20.9492 62.0365 21.586 62.6118 22.806 62.6118C24.9528 62.6118 26.2586 61.3456 26.2586 59.1877" fill="#282828"/>
<path d="M42.2479 65.4316C40.9712 65.3449 40.3328 64.7407 40.3328 63.5324V55.7057C40.2454 54.1231 39.3753 53.3454 37.6643 53.3454C35.9534 53.3454 35.0818 54.1215 35.0526 55.7057V65.4316H31.135V56.4819C31.135 52.1371 33.3401 49.9777 37.7211 49.9777C42.1021 49.9777 44.2504 52.1356 44.2213 56.4819V65.4316H42.2479Z" fill="#282828"/>
<path d="M59.3961 47.7924V58.8423C59.3961 63.4168 56.9869 65.6904 52.2008 65.6615C47.4423 65.5747 45.0623 63.0151 45.0623 57.9505C45.0623 52.8859 47.0939 50.1238 51.1849 49.9793C53.1 49.9793 54.5793 50.7554 55.5659 52.3381V45.8643H57.481C58.526 45.8643 59.3961 46.7561 59.3961 47.7924ZM49.0382 57.777C49.009 60.8556 50.054 62.4094 52.2591 62.4094C54.4642 62.4094 55.5675 60.8556 55.5675 57.777C55.48 54.8414 54.4074 53.4033 52.3174 53.4033C50.2274 53.4033 49.1548 54.8414 49.0382 57.777Z" fill="#282828"/>
<path d="M63.0819 68.1375C65.1995 68.1375 65.9545 67.1012 65.3453 65.0878L60.1218 50.2107H64.5028L67.5488 60.7705L70.2173 51.562C70.4506 50.6702 71.0583 50.2091 72.0449 50.2091H74.7441L68.6798 68.0204C67.7514 70.5237 66.823 71.3866 63.6312 71.3866C62.6446 71.3866 62.1228 71.3577 62.0062 71.2709V68.1345H63.0804L63.0819 68.1375Z" fill="#282828"/>
<path d="M92.5321 55.648C92.5321 60.4539 90.4437 64.021 86.6427 65.0284C85.656 65.2871 84.2642 65.4317 82.4642 65.4317H75.8198V47.9644C75.8198 46.6115 76.4873 45.8932 77.85 45.8643H83.5369C89.8038 45.8643 92.5321 49.404 92.5321 55.648ZM83.5369 49.2884H79.7942V61.892H83.0151C87.0186 61.892 88.412 59.763 88.412 55.648C88.412 51.533 87.1936 49.2884 83.5369 49.2884Z" fill="#282828"/>
<path d="M97.6392 54.181H93.7799C94.2449 51.361 96.2459 49.9792 99.786 49.9792C104.023 49.9792 106.17 51.361 106.257 54.181V59.3612C106.257 63.5629 103.704 65.4332 99.5542 65.7208C95.8684 66.0084 93.3149 64.3116 93.3149 60.9439C93.4024 57.29 96.0724 56.3115 99.9594 55.9371C101.614 55.7362 102.454 55.2462 102.454 54.4123C102.367 53.5494 101.555 53.1172 99.9594 53.1172C98.5952 53.1172 97.8417 53.4627 97.6377 54.1825M102.513 59.1892V57.7785C101.614 58.1529 100.569 58.4694 99.4376 58.6992C97.9 58.9868 97.1159 59.7066 97.1159 60.8282C97.2034 62.0365 97.8402 62.6118 99.0601 62.6118C101.207 62.6118 102.513 61.3456 102.513 59.1877" fill="#282828"/>
<path d="M118.502 65.4316C117.225 65.3449 116.587 64.7407 116.587 63.5324V55.7057C116.5 54.1231 115.629 53.3454 113.918 53.3454C112.208 53.3454 111.336 54.1215 111.307 55.7057V65.4316H107.389V56.4819C107.389 52.1371 109.594 49.9777 113.975 49.9777C118.356 49.9777 120.505 52.1356 120.475 56.4819V65.4316H118.502Z" fill="#282828"/>
<path d="M135.65 47.7924V58.8423C135.65 63.4168 133.241 65.6904 128.455 65.6615C123.697 65.5747 121.317 63.0151 121.317 57.9505C121.317 52.8859 123.348 50.1238 127.439 49.9793C129.354 49.9793 130.834 50.7554 131.82 52.3381V45.8643H133.735C134.78 45.8643 135.65 46.7561 135.65 47.7924ZM125.293 57.777C125.263 60.8556 126.308 62.4094 128.513 62.4094C130.719 62.4094 131.822 60.8556 131.822 57.777C131.734 54.8414 130.662 53.4033 128.572 53.4033C126.482 53.4033 125.409 54.8414 125.293 57.777Z" fill="#282828"/>
<path d="M139.336 68.1375C141.454 68.1375 142.209 67.1012 141.599 65.0878L136.376 50.2107H140.757L143.803 60.7705L146.473 51.562C146.705 50.6702 147.314 50.2091 148.301 50.2091H151L144.935 68.0204C144.007 70.5237 143.079 71.3866 139.887 71.3866C138.9 71.3866 138.379 71.3577 138.262 71.2709V68.1345H139.336V68.1375Z" fill="#282828"/>
<path d="M77.0938 0H91.9324V14.7159H86.1872C81.1648 14.7159 77.0938 10.6785 77.0938 5.69765V0Z" fill="#57DD2A"/>
<path d="M73.9065 14.7174H59.0679V0H64.8131C69.8355 0 73.9065 4.03736 73.9065 9.01823V14.7159V14.7174Z" fill="#1852F9"/>
<path d="M77.0938 18.7807H91.9324V33.4966H86.1872C81.1648 33.4966 77.0938 29.4593 77.0938 24.4784V18.7807Z" fill="#CC00F7"/>
<path d="M73.9065 33.4979H59.0679V18.782H64.8131C69.8355 18.782 73.9065 22.8194 73.9065 27.8003V33.4979Z" fill="#FC4700"/>
</svg>
