<svg width="151" height="85" viewBox="0 0 151 85" fill="none" xmlns="http://www.w3.org/2000/svg">
<path d="M2.03169 45.8643H4.09099V53.1735H12.1855V45.8643H16.2765V65.4317H12.1855V56.7695H4.09099V65.4317H0V47.9644C0 46.8413 0.899221 45.8643 2.03169 45.8643Z" fill="#282828"/>
<path d="M21.3848 54.1812H17.5255C17.9905 51.3613 19.9915 49.9795 23.5316 49.9795C27.7683 49.9795 29.9151 51.3613 30.0026 54.1812V59.3614C30.0026 63.5631 27.4492 65.4334 23.2998 65.7211C19.614 66.0087 17.0605 64.3119 17.0605 60.9441C17.148 57.2903 19.8181 56.3117 23.705 55.9374C25.3592 55.7365 26.2001 55.2465 26.2001 54.4125C26.1126 53.5496 25.3008 53.1175 23.705 53.1175C22.3408 53.1175 21.5873 53.4629 21.3833 54.1827M26.2584 59.1895V57.7788C25.3592 58.1531 24.3142 58.4697 23.1832 58.6994C21.6457 58.9871 20.8615 59.7069 20.8615 60.8285C20.949 62.0368 21.5858 62.612 22.8057 62.612C24.9525 62.612 26.2584 61.3459 26.2584 59.1879" fill="#282828"/>
<path d="M42.2477 65.4315C40.971 65.3448 40.3326 64.7406 40.3326 63.5323V55.7056C40.2451 54.1229 39.3751 53.3453 37.6641 53.3453C35.9531 53.3453 35.0815 54.1214 35.0524 55.7056V65.4315H31.1348V56.4817C31.1348 52.137 33.3399 49.9775 37.7209 49.9775C42.1019 49.9775 44.2502 52.1355 44.221 56.4817V65.4315H42.2477Z" fill="#282828"/>
<path d="M59.3963 47.7924V58.8422C59.3963 63.4168 56.9871 65.6904 52.201 65.6615C47.4425 65.5747 45.0625 63.015 45.0625 57.9504C45.0625 52.8859 47.0942 50.1238 51.1852 49.9792C53.1002 49.9792 54.5795 50.7553 55.5662 52.338V45.8643H57.4813C58.5263 45.8643 59.3963 46.756 59.3963 47.7924ZM49.0384 57.777C49.0092 60.8556 50.0542 62.4093 52.2593 62.4093C54.4644 62.4093 55.5677 60.8556 55.5677 57.777C55.4803 54.8414 54.4076 53.4033 52.3176 53.4033C50.2276 53.4033 49.155 54.8414 49.0384 57.777Z" fill="#282828"/>
<path d="M63.0812 68.1374C65.1988 68.1374 65.9538 67.101 65.3446 65.0877L60.1211 50.2105H64.5021L67.5481 60.7703L70.2166 51.5619C70.4499 50.6701 71.0575 50.209 72.0442 50.209H74.7434L68.679 68.0202C67.7507 70.5236 66.8223 71.3865 63.6305 71.3865C62.6438 71.3865 62.1221 71.3575 62.0055 71.2708V68.1344H63.0796L63.0812 68.1374Z" fill="#282828"/>
<path d="M92.5326 55.648C92.5326 60.4538 90.4442 64.0209 86.6432 65.0284C85.6565 65.2871 84.2647 65.4317 82.4647 65.4317H75.8203V47.9644C75.8203 46.6115 76.4878 45.8932 77.8505 45.8643H83.5373C89.8043 45.8643 92.5326 49.404 92.5326 55.648ZM83.5373 49.2883H79.7947V61.8919H83.0156C87.0191 61.8919 88.4125 59.7629 88.4125 55.648C88.4125 51.533 87.1941 49.2883 83.5373 49.2883Z" fill="#282828"/>
<path d="M97.6387 54.1812H93.7794C94.2444 51.3613 96.2454 49.9795 99.7855 49.9795C104.022 49.9795 106.169 51.3613 106.256 54.1812V59.3614C106.256 63.5631 103.703 65.4334 99.5538 65.7211C95.8679 66.0087 93.3145 64.3119 93.3145 60.9441C93.4019 57.2903 96.072 56.3117 99.9589 55.9374C101.613 55.7365 102.454 55.2465 102.454 54.4125C102.367 53.5496 101.555 53.1175 99.9589 53.1175C98.5947 53.1175 97.8413 53.4629 97.6372 54.1827M102.512 59.1895V57.7788C101.613 58.1531 100.568 58.4697 99.4371 58.6994C97.8996 58.9871 97.1154 59.7069 97.1154 60.8285C97.2029 62.0368 97.8397 62.612 99.0596 62.612C101.206 62.612 102.512 61.3459 102.512 59.1879" fill="#282828"/>
<path d="M118.502 65.4315C117.225 65.3448 116.587 64.7406 116.587 63.5323V55.7056C116.499 54.1229 115.629 53.3453 113.918 53.3453C112.207 53.3453 111.335 54.1214 111.306 55.7056V65.4315H107.389V56.4817C107.389 52.137 109.594 49.9775 113.975 49.9775C118.356 49.9775 120.504 52.1355 120.475 56.4817V65.4315H118.502Z" fill="#282828"/>
<path d="M135.65 47.7924V58.8422C135.65 63.4168 133.241 65.6904 128.455 65.6615C123.696 65.5747 121.316 63.015 121.316 57.9504C121.316 52.8859 123.348 50.1238 127.439 49.9792C129.354 49.9792 130.833 50.7553 131.82 52.338V45.8643H133.735C134.78 45.8643 135.65 46.756 135.65 47.7924ZM125.292 57.777C125.263 60.8556 126.308 62.4093 128.513 62.4093C130.718 62.4093 131.822 60.8556 131.822 57.777C131.734 54.8414 130.662 53.4033 128.572 53.4033C126.482 53.4033 125.409 54.8414 125.292 57.777Z" fill="#282828"/>
<path d="M139.337 68.1374C141.455 68.1374 142.21 67.101 141.6 65.0877L136.377 50.2105H140.758L143.804 60.7703L146.474 51.5619C146.706 50.6701 147.315 50.209 148.302 50.209H151.001L144.936 68.0202C144.008 70.5236 143.08 71.3865 139.888 71.3865C138.901 71.3865 138.379 71.3575 138.263 71.2708V68.1344H139.337V68.1374Z" fill="#282828"/>
<path d="M77.0938 0H91.9324V14.7159H86.1872C81.1648 14.7159 77.0938 10.6785 77.0938 5.69765V0Z" fill="#57DD2A"/>
<path d="M73.907 14.7174H59.0684V0H64.8136C69.836 0 73.907 4.03736 73.907 9.01823V14.7159V14.7174Z" fill="#1852F9"/>
<path d="M77.0938 18.7803H91.9324V33.4962H86.1872C81.1648 33.4962 77.0938 29.4588 77.0938 24.4779V18.7803Z" fill="#CC00F7"/>
<path d="M73.907 33.4981H59.0684V18.7822H64.8136C69.836 18.7822 73.907 22.8196 73.907 27.8005V33.4981Z" fill="#FC4700"/>
</svg>
